solid Case
facet normal 0.0 1.0 0.0
  outer loop
    vertex 2516.7863330268183 4423.634649346092 21.999999999999996
    vertex 2518.7863330268183 4423.634649346092 3.9999999999999996
    vertex 2516.7863330268183 4423.634649346092 3.9999999999999996
  endloop
endfacet
facet normal 0.0 1.0 0.0
  outer loop
    vertex 2518.7863330268183 4423.634649346092 3.9999999999999996
    vertex 2516.7863330268183 4423.634649346092 21.999999999999996
    vertex 2518.7863330268183 4423.634649346092 21.999999999999996
  endloop
endfacet
facet normal 0.0 -1.0 0.0
  outer loop
    vertex 2518.7863330268183 4433.634649346093 21.999999999999996
    vertex 2516.7863330268183 4433.634649346093 3.9999999999999996
    vertex 2518.7863330268183 4433.634649346093 3.9999999999999982
  endloop
endfacet
facet normal 0.0 -1.0 0.0
  outer loop
    vertex 2516.7863330268183 4433.634649346093 3.9999999999999996
    vertex 2518.7863330268183 4433.634649346093 21.999999999999996
    vertex 2516.7863330268183 4433.634649346093 21.999999999999996
  endloop
endfacet
facet normal 1.0 0.0 0.0
  outer loop
    vertex 2555.7863330268183 4440.384649346093 0.0
    vertex 2555.7863330268183 4416.884649346092 21.999999999999996
    vertex 2555.7863330268183 4416.884649346092 0.0
  endloop
endfacet
facet normal 1.0 0.0 0.0
  outer loop
    vertex 2555.7863330268183 4416.884649346092 21.999999999999996
    vertex 2555.7863330268183 4440.384649346093 0.0
    vertex 2555.7863330268183 4440.384649346093 21.999999999999996
  endloop
endfacet
facet normal 0.0 -1.0 0.0
  outer loop
    vertex 2553.7863330268183 4438.384649346092 21.999999999999996
    vertex 2518.7863330268183 4438.384649346092 1.9999999999999998
    vertex 2553.7863330268183 4438.384649346092 1.9999999999999998
  endloop
endfacet
facet normal 0.0 -1.0 0.0
  outer loop
    vertex 2518.7863330268183 4438.384649346092 1.9999999999999998
    vertex 2553.7863330268183 4438.384649346092 21.999999999999996
    vertex 2518.7863330268183 4438.384649346092 21.999999999999996
  endloop
endfacet
facet normal 0.0 1.0 0.0
  outer loop
    vertex 2516.7863330268183 4440.384649346093 21.999999999999996
    vertex 2555.7863330268183 4440.384649346093 0.0
    vertex 2516.7863330268183 4440.384649346093 0.0
  endloop
endfacet
facet normal 0.0 1.0 0.0
  outer loop
    vertex 2555.7863330268183 4440.384649346093 0.0
    vertex 2516.7863330268183 4440.384649346093 21.999999999999996
    vertex 2555.7863330268183 4440.384649346093 21.999999999999996
  endloop
endfacet
facet normal 0.0 0.0 1.0
  outer loop
    vertex 2516.7863330268183 4416.884649346092 21.999999999999996
    vertex 2518.7863330268183 4418.884649346092 21.999999999999996
    vertex 2516.7863330268183 4423.634649346092 21.999999999999996
  endloop
endfacet
facet normal 0.0 0.0 1.0
  outer loop
    vertex 2518.7863330268183 4418.884649346092 21.999999999999996
    vertex 2516.7863330268183 4416.884649346092 21.999999999999996
    vertex 2555.7863330268183 4416.884649346092 21.999999999999996
  endloop
endfacet
facet normal 0.0 0.0 1.0
  outer loop
    vertex 2518.7863330268183 4418.884649346092 21.999999999999996
    vertex 2555.7863330268183 4416.884649346092 21.999999999999996
    vertex 2553.7863330268183 4418.884649346092 21.999999999999996
  endloop
endfacet
facet normal 0.0 0.0 1.0
  outer loop
    vertex 2553.7863330268183 4418.884649346092 21.999999999999996
    vertex 2555.7863330268183 4416.884649346092 21.999999999999996
    vertex 2553.7863330268183 4438.384649346092 21.999999999999996
  endloop
endfacet
facet normal 0.0 0.0 1.0
  outer loop
    vertex 2518.7863330268183 4433.634649346093 21.999999999999996
    vertex 2516.7863330268183 4440.384649346093 21.999999999999996
    vertex 2516.7863330268183 4433.634649346093 21.999999999999996
  endloop
endfacet
facet normal 0.0 0.0 1.0
  outer loop
    vertex 2516.7863330268183 4440.384649346093 21.999999999999996
    vertex 2518.7863330268183 4433.634649346093 21.999999999999996
    vertex 2518.7863330268183 4438.384649346092 21.999999999999996
  endloop
endfacet
facet normal 0.0 0.0 1.0
  outer loop
    vertex 2516.7863330268183 4440.384649346093 21.999999999999996
    vertex 2518.7863330268183 4438.384649346092 21.999999999999996
    vertex 2555.7863330268183 4440.384649346093 21.999999999999996
  endloop
endfacet
facet normal 0.0 0.0 1.0
  outer loop
    vertex 2555.7863330268183 4440.384649346093 21.999999999999996
    vertex 2518.7863330268183 4438.384649346092 21.999999999999996
    vertex 2553.7863330268183 4438.384649346092 21.999999999999996
  endloop
endfacet
facet normal 0.0 0.0 1.0
  outer loop
    vertex 2555.7863330268183 4440.384649346093 21.999999999999996
    vertex 2553.7863330268183 4438.384649346092 21.999999999999996
    vertex 2555.7863330268183 4416.884649346092 21.999999999999996
  endloop
endfacet
facet normal 0.0 0.0 1.0
  outer loop
    vertex 2518.7863330268183 4423.634649346092 21.999999999999996
    vertex 2516.7863330268183 4423.634649346092 21.999999999999996
    vertex 2518.7863330268183 4418.884649346092 21.999999999999996
  endloop
endfacet
facet normal 1.0 -7.765831018255319e-32 -4.4061976289812966e-16
  outer loop
    vertex 2518.7863330268183 4433.634649346093 1.9999999999999984
    vertex 2518.7863330268183 4423.634649346092 3.9999999999999996
    vertex 2518.7863330268183 4423.634649346092 2.0
  endloop
endfacet
facet normal 1.0 -7.765831018255319e-32 -4.4061976289812966e-16
  outer loop
    vertex 2518.7863330268183 4423.634649346092 3.9999999999999996
    vertex 2518.7863330268183 4433.634649346093 1.9999999999999984
    vertex 2518.7863330268183 4433.634649346093 3.9999999999999982
  endloop
endfacet
facet normal 0.0 0.0 -1.0
  outer loop
    vertex 2555.7863330268183 4440.384649346093 0.0
    vertex 2516.7863330268183 4416.884649346092 0.0
    vertex 2516.7863330268183 4440.384649346093 0.0
  endloop
endfacet
facet normal 0.0 0.0 -1.0
  outer loop
    vertex 2516.7863330268183 4416.884649346092 0.0
    vertex 2555.7863330268183 4440.384649346093 0.0
    vertex 2555.7863330268183 4416.884649346092 0.0
  endloop
endfacet
facet normal -0.0 -1.0 -0.0
  outer loop
    vertex 2555.7863330268183 4416.884649346092 21.999999999999996
    vertex 2516.7863330268183 4416.884649346092 0.0
    vertex 2555.7863330268183 4416.884649346092 0.0
  endloop
endfacet
facet normal -0.0 -1.0 -0.0
  outer loop
    vertex 2516.7863330268183 4416.884649346092 0.0
    vertex 2555.7863330268183 4416.884649346092 21.999999999999996
    vertex 2516.7863330268183 4416.884649346092 21.999999999999996
  endloop
endfacet
facet normal -1.0 0.0 0.0
  outer loop
    vertex 2553.7863330268183 4438.384649346092 21.999999999999996
    vertex 2553.7863330268183 4418.884649346092 1.9999999999999998
    vertex 2553.7863330268183 4418.884649346092 21.999999999999996
  endloop
endfacet
facet normal -1.0 0.0 0.0
  outer loop
    vertex 2553.7863330268183 4418.884649346092 1.9999999999999998
    vertex 2553.7863330268183 4438.384649346092 21.999999999999996
    vertex 2553.7863330268183 4438.384649346092 1.9999999999999998
  endloop
endfacet
facet normal -1.0 0.0 0.0
  outer loop
    vertex 2516.7863330268183 4440.384649346093 21.999999999999996
    vertex 2516.7863330268183 4433.634649346093 3.9999999999999996
    vertex 2516.7863330268183 4433.634649346093 21.999999999999996
  endloop
endfacet
facet normal -1.0 0.0 0.0
  outer loop
    vertex 2516.7863330268183 4423.634649346092 21.999999999999996
    vertex 2516.7863330268183 4416.884649346092 0.0
    vertex 2516.7863330268183 4416.884649346092 21.999999999999996
  endloop
endfacet
facet normal -1.0 0.0 0.0
  outer loop
    vertex 2516.7863330268183 4416.884649346092 0.0
    vertex 2516.7863330268183 4423.634649346092 21.999999999999996
    vertex 2516.7863330268183 4423.634649346092 3.9999999999999996
  endloop
endfacet
facet normal -1.0 0.0 0.0
  outer loop
    vertex 2516.7863330268183 4416.884649346092 0.0
    vertex 2516.7863330268183 4423.634649346092 3.9999999999999996
    vertex 2516.7863330268183 4440.384649346093 0.0
  endloop
endfacet
facet normal -1.0 0.0 0.0
  outer loop
    vertex 2516.7863330268183 4440.384649346093 0.0
    vertex 2516.7863330268183 4423.634649346092 3.9999999999999996
    vertex 2516.7863330268183 4433.634649346093 3.9999999999999996
  endloop
endfacet
facet normal -1.0 0.0 0.0
  outer loop
    vertex 2516.7863330268183 4440.384649346093 0.0
    vertex 2516.7863330268183 4433.634649346093 3.9999999999999996
    vertex 2516.7863330268183 4440.384649346093 21.999999999999996
  endloop
endfacet
facet normal -7.553481649681871e-18 1.95831005732506e-17 1.0
  outer loop
    vertex 2553.7863330268183 4418.884649346092 1.9999999999999998
    vertex 2518.7863330268183 4423.634649346092 2.0
    vertex 2518.7863330268183 4418.884649346092 1.9999999999999998
  endloop
endfacet
facet normal -7.553481649681871e-18 1.95831005732506e-17 1.0
  outer loop
    vertex 2518.7863330268183 4423.634649346092 2.0
    vertex 2553.7863330268183 4418.884649346092 1.9999999999999998
    vertex 2518.7863330268183 4433.634649346093 1.9999999999999984
  endloop
endfacet
facet normal -7.553481649681871e-18 1.95831005732506e-17 1.0
  outer loop
    vertex 2518.7863330268183 4433.634649346093 1.9999999999999984
    vertex 2553.7863330268183 4418.884649346092 1.9999999999999998
    vertex 2518.7863330268183 4438.384649346092 1.9999999999999998
  endloop
endfacet
facet normal -7.553481649681871e-18 1.95831005732506e-17 1.0
  outer loop
    vertex 2518.7863330268183 4438.384649346092 1.9999999999999998
    vertex 2553.7863330268183 4418.884649346092 1.9999999999999998
    vertex 2553.7863330268183 4438.384649346092 1.9999999999999998
  endloop
endfacet
facet normal 1.0 0.0 0.0
  outer loop
    vertex 2518.7863330268183 4423.634649346092 2.0
    vertex 2518.7863330268183 4418.884649346092 21.999999999999996
    vertex 2518.7863330268183 4418.884649346092 1.9999999999999998
  endloop
endfacet
facet normal 1.0 0.0 0.0
  outer loop
    vertex 2518.7863330268183 4418.884649346092 21.999999999999996
    vertex 2518.7863330268183 4423.634649346092 2.0
    vertex 2518.7863330268183 4423.634649346092 21.999999999999996
  endloop
endfacet
facet normal 1.0 0.0 0.0
  outer loop
    vertex 2518.7863330268183 4423.634649346092 21.999999999999996
    vertex 2518.7863330268183 4423.634649346092 2.0
    vertex 2518.7863330268183 4423.634649346092 3.9999999999999996
  endloop
endfacet
facet normal 1.0 0.0 0.0
  outer loop
    vertex 2518.7863330268183 4438.384649346092 1.9999999999999998
    vertex 2518.7863330268183 4433.634649346093 3.9999999999999982
    vertex 2518.7863330268183 4433.634649346093 1.9999999999999984
  endloop
endfacet
facet normal 1.0 0.0 0.0
  outer loop
    vertex 2518.7863330268183 4433.634649346093 3.9999999999999982
    vertex 2518.7863330268183 4438.384649346092 1.9999999999999998
    vertex 2518.7863330268183 4433.634649346093 21.999999999999996
  endloop
endfacet
facet normal 1.0 0.0 0.0
  outer loop
    vertex 2518.7863330268183 4433.634649346093 21.999999999999996
    vertex 2518.7863330268183 4438.384649346092 1.9999999999999998
    vertex 2518.7863330268183 4438.384649346092 21.999999999999996
  endloop
endfacet
facet normal 0.0 1.0 0.0
  outer loop
    vertex 2518.7863330268183 4418.884649346092 21.999999999999996
    vertex 2553.7863330268183 4418.884649346092 1.9999999999999998
    vertex 2518.7863330268183 4418.884649346092 1.9999999999999998
  endloop
endfacet
facet normal 0.0 1.0 0.0
  outer loop
    vertex 2553.7863330268183 4418.884649346092 1.9999999999999998
    vertex 2518.7863330268183 4418.884649346092 21.999999999999996
    vertex 2553.7863330268183 4418.884649346092 21.999999999999996
  endloop
endfacet
facet normal 4.4061976289812966e-16 8.81239525796164e-17 1.0
  outer loop
    vertex 2518.7863330268183 4423.634649346092 3.9999999999999996
    vertex 2516.7863330268183 4433.634649346093 3.9999999999999996
    vertex 2516.7863330268183 4423.634649346092 3.9999999999999996
  endloop
endfacet
facet normal 4.4061976289812966e-16 8.81239525796164e-17 1.0
  outer loop
    vertex 2516.7863330268183 4433.634649346093 3.9999999999999996
    vertex 2518.7863330268183 4423.634649346092 3.9999999999999996
    vertex 2518.7863330268183 4433.634649346093 3.9999999999999982
  endloop
endfacet
endsolid Case
