solid Case
facet normal 1.0 0.0 0.0
  outer loop
    vertex 2603.127384670292 4325.348599493901 4.999999999999999
    vertex 2603.127384670292 4315.3485994939 5.999999999999999
    vertex 2603.127384670292 4315.3485994939 4.999999999999999
  endloop
endfacet
facet normal 1.0 0.0 0.0
  outer loop
    vertex 2603.127384670292 4315.3485994939 5.999999999999999
    vertex 2603.127384670292 4325.348599493901 4.999999999999999
    vertex 2603.127384670292 4325.348599493901 5.999999999999999
  endloop
endfacet
facet normal 1.0 0.0 0.0
  outer loop
    vertex 2611.477384670292 4332.098599493901 0.0
    vertex 2611.477384670292 4308.5985994939 3.9999999999999996
    vertex 2611.477384670292 4308.5985994939 0.0
  endloop
endfacet
facet normal 1.0 0.0 0.0
  outer loop
    vertex 2611.477384670292 4308.5985994939 3.9999999999999996
    vertex 2611.477384670292 4332.098599493901 0.0
    vertex 2611.477384670292 4332.098599493901 3.9999999999999996
  endloop
endfacet
facet normal -1.0 0.0 0.0
  outer loop
    vertex 2574.8273846702923 4329.748599493901 5.999999999999999
    vertex 2574.8273846702923 4310.9485994939005 3.9999999999999996
    vertex 2574.8273846702923 4310.9485994939005 5.999999999999999
  endloop
endfacet
facet normal -1.0 0.0 0.0
  outer loop
    vertex 2574.8273846702923 4310.9485994939005 3.9999999999999996
    vertex 2574.8273846702923 4329.748599493901 5.999999999999999
    vertex 2574.8273846702923 4329.748599493901 3.9999999999999996
  endloop
endfacet
facet normal 0.0 0.0 1.0
  outer loop
    vertex 2572.4773846702924 4308.5985994939 3.9999999999999996
    vertex 2574.8273846702923 4310.9485994939005 3.9999999999999996
    vertex 2572.4773846702924 4332.098599493901 3.9999999999999996
  endloop
endfacet
facet normal 0.0 0.0 1.0
  outer loop
    vertex 2574.8273846702923 4310.9485994939005 3.9999999999999996
    vertex 2572.4773846702924 4308.5985994939 3.9999999999999996
    vertex 2611.477384670292 4308.5985994939 3.9999999999999996
  endloop
endfacet
facet normal 0.0 0.0 1.0
  outer loop
    vertex 2574.8273846702923 4310.9485994939005 3.9999999999999996
    vertex 2611.477384670292 4308.5985994939 3.9999999999999996
    vertex 2609.1273846702925 4310.9485994939005 3.9999999999999996
  endloop
endfacet
facet normal 0.0 0.0 1.0
  outer loop
    vertex 2609.1273846702925 4310.9485994939005 3.9999999999999996
    vertex 2611.477384670292 4308.5985994939 3.9999999999999996
    vertex 2609.1273846702925 4329.748599493901 3.9999999999999996
  endloop
endfacet
facet normal 0.0 0.0 1.0
  outer loop
    vertex 2572.4773846702924 4332.098599493901 3.9999999999999996
    vertex 2574.8273846702923 4329.748599493901 3.9999999999999996
    vertex 2611.477384670292 4332.098599493901 3.9999999999999996
  endloop
endfacet
facet normal 0.0 0.0 1.0
  outer loop
    vertex 2574.8273846702923 4329.748599493901 3.9999999999999996
    vertex 2572.4773846702924 4332.098599493901 3.9999999999999996
    vertex 2574.8273846702923 4310.9485994939005 3.9999999999999996
  endloop
endfacet
facet normal 0.0 0.0 1.0
  outer loop
    vertex 2611.477384670292 4332.098599493901 3.9999999999999996
    vertex 2574.8273846702923 4329.748599493901 3.9999999999999996
    vertex 2609.1273846702925 4329.748599493901 3.9999999999999996
  endloop
endfacet
facet normal 0.0 0.0 1.0
  outer loop
    vertex 2611.477384670292 4332.098599493901 3.9999999999999996
    vertex 2609.1273846702925 4329.748599493901 3.9999999999999996
    vertex 2611.477384670292 4308.5985994939 3.9999999999999996
  endloop
endfacet
facet normal 0.0 1.0 0.0
  outer loop
    vertex 2572.4773846702924 4332.098599493901 3.9999999999999996
    vertex 2611.477384670292 4332.098599493901 0.0
    vertex 2572.4773846702924 4332.098599493901 0.0
  endloop
endfacet
facet normal 0.0 1.0 0.0
  outer loop
    vertex 2611.477384670292 4332.098599493901 0.0
    vertex 2572.4773846702924 4332.098599493901 3.9999999999999996
    vertex 2611.477384670292 4332.098599493901 3.9999999999999996
  endloop
endfacet
facet normal 0.0 0.0 1.0
  outer loop
    vertex 2609.1273846702925 4315.3485994939 4.999999999999999
    vertex 2603.127384670292 4325.348599493901 4.999999999999999
    vertex 2603.127384670292 4315.3485994939 4.999999999999999
  endloop
endfacet
facet normal 0.0 0.0 1.0
  outer loop
    vertex 2603.127384670292 4325.348599493901 4.999999999999999
    vertex 2609.1273846702925 4315.3485994939 4.999999999999999
    vertex 2609.1273846702925 4325.348599493901 4.999999999999999
  endloop
endfacet
facet normal 0.0 0.0 -1.0
  outer loop
    vertex 2611.477384670292 4332.098599493901 0.0
    vertex 2572.4773846702924 4308.5985994939 0.0
    vertex 2572.4773846702924 4332.098599493901 0.0
  endloop
endfacet
facet normal 0.0 0.0 -1.0
  outer loop
    vertex 2572.4773846702924 4308.5985994939 0.0
    vertex 2611.477384670292 4332.098599493901 0.0
    vertex 2611.477384670292 4308.5985994939 0.0
  endloop
endfacet
facet normal 0.0 1.0 0.0
  outer loop
    vertex 2603.127384670292 4315.3485994939 5.999999999999999
    vertex 2609.1273846702925 4315.3485994939 4.999999999999999
    vertex 2603.127384670292 4315.3485994939 4.999999999999999
  endloop
endfacet
facet normal 0.0 1.0 0.0
  outer loop
    vertex 2609.1273846702925 4315.3485994939 4.999999999999999
    vertex 2603.127384670292 4315.3485994939 5.999999999999999
    vertex 2609.1273846702925 4315.3485994939 5.999999999999999
  endloop
endfacet
facet normal 0.0 1.0 0.0
  outer loop
    vertex 2574.8273846702923 4329.748599493901 5.999999999999999
    vertex 2609.1273846702925 4329.748599493901 3.9999999999999996
    vertex 2574.8273846702923 4329.748599493901 3.9999999999999996
  endloop
endfacet
facet normal 0.0 1.0 0.0
  outer loop
    vertex 2609.1273846702925 4329.748599493901 3.9999999999999996
    vertex 2574.8273846702923 4329.748599493901 5.999999999999999
    vertex 2609.1273846702925 4329.748599493901 5.999999999999999
  endloop
endfacet
facet normal -0.0 -1.0 -0.0
  outer loop
    vertex 2609.1273846702925 4325.348599493901 5.999999999999999
    vertex 2603.127384670292 4325.348599493901 4.999999999999999
    vertex 2609.1273846702925 4325.348599493901 4.999999999999999
  endloop
endfacet
facet normal -0.0 -1.0 -0.0
  outer loop
    vertex 2603.127384670292 4325.348599493901 4.999999999999999
    vertex 2609.1273846702925 4325.348599493901 5.999999999999999
    vertex 2603.127384670292 4325.348599493901 5.999999999999999
  endloop
endfacet
facet normal 0.0 -1.0 0.0
  outer loop
    vertex 2609.1273846702925 4310.9485994939005 5.999999999999999
    vertex 2574.8273846702923 4310.9485994939005 3.9999999999999996
    vertex 2609.1273846702925 4310.9485994939005 3.9999999999999996
  endloop
endfacet
facet normal 0.0 -1.0 0.0
  outer loop
    vertex 2574.8273846702923 4310.9485994939005 3.9999999999999996
    vertex 2609.1273846702925 4310.9485994939005 5.999999999999999
    vertex 2574.8273846702923 4310.9485994939005 5.999999999999999
  endloop
endfacet
facet normal 1.0 0.0 0.0
  outer loop
    vertex 2609.1273846702925 4310.9485994939005 3.9999999999999996
    vertex 2609.1273846702925 4315.3485994939 4.999999999999999
    vertex 2609.1273846702925 4310.9485994939005 5.999999999999999
  endloop
endfacet
facet normal 1.0 0.0 0.0
  outer loop
    vertex 2609.1273846702925 4315.3485994939 4.999999999999999
    vertex 2609.1273846702925 4310.9485994939005 3.9999999999999996
    vertex 2609.1273846702925 4329.748599493901 3.9999999999999996
  endloop
endfacet
facet normal 1.0 0.0 0.0
  outer loop
    vertex 2609.1273846702925 4315.3485994939 4.999999999999999
    vertex 2609.1273846702925 4329.748599493901 3.9999999999999996
    vertex 2609.1273846702925 4325.348599493901 4.999999999999999
  endloop
endfacet
facet normal 1.0 0.0 0.0
  outer loop
    vertex 2609.1273846702925 4325.348599493901 4.999999999999999
    vertex 2609.1273846702925 4329.748599493901 3.9999999999999996
    vertex 2609.1273846702925 4325.348599493901 5.999999999999999
  endloop
endfacet
facet normal 1.0 0.0 0.0
  outer loop
    vertex 2609.1273846702925 4325.348599493901 5.999999999999999
    vertex 2609.1273846702925 4329.748599493901 3.9999999999999996
    vertex 2609.1273846702925 4329.748599493901 5.999999999999999
  endloop
endfacet
facet normal 1.0 0.0 0.0
  outer loop
    vertex 2609.1273846702925 4315.3485994939 5.999999999999999
    vertex 2609.1273846702925 4310.9485994939005 5.999999999999999
    vertex 2609.1273846702925 4315.3485994939 4.999999999999999
  endloop
endfacet
facet normal -0.0 -1.0 -0.0
  outer loop
    vertex 2611.477384670292 4308.5985994939 3.9999999999999996
    vertex 2572.4773846702924 4308.5985994939 0.0
    vertex 2611.477384670292 4308.5985994939 0.0
  endloop
endfacet
facet normal -0.0 -1.0 -0.0
  outer loop
    vertex 2572.4773846702924 4308.5985994939 0.0
    vertex 2611.477384670292 4308.5985994939 3.9999999999999996
    vertex 2572.4773846702924 4308.5985994939 3.9999999999999996
  endloop
endfacet
facet normal -1.0 0.0 0.0
  outer loop
    vertex 2572.4773846702924 4332.098599493901 3.9999999999999996
    vertex 2572.4773846702924 4308.5985994939 0.0
    vertex 2572.4773846702924 4308.5985994939 3.9999999999999996
  endloop
endfacet
facet normal -1.0 0.0 0.0
  outer loop
    vertex 2572.4773846702924 4308.5985994939 0.0
    vertex 2572.4773846702924 4332.098599493901 3.9999999999999996
    vertex 2572.4773846702924 4332.098599493901 0.0
  endloop
endfacet
facet normal 0.0 0.0 1.0
  outer loop
    vertex 2609.1273846702925 4310.9485994939005 5.999999999999999
    vertex 2574.8273846702923 4329.748599493901 5.999999999999999
    vertex 2574.8273846702923 4310.9485994939005 5.999999999999999
  endloop
endfacet
facet normal 0.0 0.0 1.0
  outer loop
    vertex 2574.8273846702923 4329.748599493901 5.999999999999999
    vertex 2609.1273846702925 4310.9485994939005 5.999999999999999
    vertex 2603.127384670292 4315.3485994939 5.999999999999999
  endloop
endfacet
facet normal 0.0 0.0 1.0
  outer loop
    vertex 2603.127384670292 4315.3485994939 5.999999999999999
    vertex 2609.1273846702925 4310.9485994939005 5.999999999999999
    vertex 2609.1273846702925 4315.3485994939 5.999999999999999
  endloop
endfacet
facet normal 0.0 0.0 1.0
  outer loop
    vertex 2574.8273846702923 4329.748599493901 5.999999999999999
    vertex 2603.127384670292 4325.348599493901 5.999999999999999
    vertex 2609.1273846702925 4329.748599493901 5.999999999999999
  endloop
endfacet
facet normal 0.0 0.0 1.0
  outer loop
    vertex 2603.127384670292 4325.348599493901 5.999999999999999
    vertex 2574.8273846702923 4329.748599493901 5.999999999999999
    vertex 2603.127384670292 4315.3485994939 5.999999999999999
  endloop
endfacet
facet normal 0.0 0.0 1.0
  outer loop
    vertex 2609.1273846702925 4329.748599493901 5.999999999999999
    vertex 2603.127384670292 4325.348599493901 5.999999999999999
    vertex 2609.1273846702925 4325.348599493901 5.999999999999999
  endloop
endfacet
endsolid Case
